<svg xmlns="http://www.w3.org/2000/svg" width="2326" height="604" viewBox="0 0 2326 604" version="1.1"><path d="M 1176.754 70.476 C 1129.537 87.281, 1138.809 158.606, 1188.614 161.710 C 1222.724 163.835, 1243.148 140.927, 1238.125 106.177 C 1233.940 77.216, 1205.045 60.407, 1176.754 70.476 M 1668.462 76.250 C 1668.201 76.938, 1668.103 177.400, 1668.244 299.500 L 1668.500 521.500 1707.092 521.762 L 1745.684 522.023 1746.339 504.762 C 1747.161 483.094, 1747.190 80.310, 1746.370 77.250 L 1745.767 75 1707.352 75 C 1677.540 75, 1668.831 75.280, 1668.462 76.250 M 1840 298.500 L 1840 522 1877.418 522 C 1897.998 522, 1915.548 521.727, 1916.418 521.393 C 1918.032 520.774, 1918.997 80.761, 1917.393 76.582 C 1916.854 75.177, 1912.480 75, 1878.393 75 L 1840 75 1840 298.500 M 30.902 106.060 C 30.363 106.393, 30.098 190.844, 30.248 314.060 L 30.500 521.500 69.750 521.762 L 109 522.023 109.014 403.762 L 109.028 285.500 113.062 292.900 C 115.280 296.970, 120.393 306.645, 124.423 314.400 C 128.454 322.155, 132.469 329.850, 133.346 331.500 C 138.566 341.320, 154.689 372.227, 159.691 382 C 162.928 388.325, 168.773 399.575, 172.679 407 C 182.464 425.598, 189.118 438.315, 196.748 453 C 200.320 459.875, 207.013 472.567, 211.621 481.204 C 216.230 489.841, 220 497.207, 220 497.573 C 220 497.939, 221.613 500.894, 223.584 504.139 L 227.169 510.039 248.334 509.770 L 269.500 509.500 273.500 501.931 C 275.700 497.768, 278.575 492.368, 279.888 489.931 C 283.230 483.731, 294.722 461.884, 299.051 453.500 C 303.414 445.052, 312.286 428.116, 321.578 410.500 C 329.878 394.765, 334.214 386.505, 340.737 374 C 350.192 355.875, 361.448 334.459, 365.703 326.500 C 371.879 314.947, 377.817 303.593, 382.175 295 L 385.979 287.500 386.240 404.500 L 386.500 521.500 427 521.500 L 467.500 521.500 467.752 314.605 C 467.938 162.508, 467.707 107.352, 466.880 106.355 C 465.661 104.887, 429.224 104.571, 410 105.862 L 400.500 106.500 396.383 114.500 C 394.119 118.900, 377.064 152.650, 358.484 189.500 C 339.904 226.350, 309.594 286.425, 291.128 323 C 272.663 359.575, 256.193 392.303, 254.528 395.729 C 250.482 404.054, 252.666 406.623, 235.622 373.500 C 231.094 364.700, 224.531 352.100, 221.037 345.500 C 217.543 338.900, 212.126 328.550, 208.998 322.500 C 205.871 316.450, 202.580 310.150, 201.685 308.500 C 198.961 303.474, 181.580 270.248, 175.007 257.500 C 171.604 250.900, 167.058 242.125, 164.903 238 C 162.749 233.875, 157.477 223.750, 153.188 215.500 C 148.899 207.250, 143.135 196.225, 140.379 191 C 132.712 176.464, 121.971 155.905, 114.519 141.500 C 102.067 117.430, 95.838 106, 95.167 105.990 C 69.609 105.606, 31.569 105.648, 30.902 106.060 M 664 203.615 C 620.357 205.938, 590.629 217.317, 557.760 244.281 C 552.181 248.858, 552.002 248.134, 561.837 260.720 C 565.502 265.409, 569.625 270.781, 571 272.658 C 591.971 301.278, 592.190 301.483, 597.215 297.201 C 624.367 274.062, 667.775 265.266, 702.119 275.942 C 720.148 281.546, 728 295.903, 728 323.259 L 728 338.169 716.750 337.503 C 710.563 337.137, 701.675 336.427, 697 335.927 C 619.393 327.616, 556.949 353.653, 544.650 399.452 C 540.118 416.332, 539.798 418.979, 540.352 435 C 542.680 502.317, 613.866 545.506, 687.766 524.436 C 701.743 520.451, 732.108 502.106, 736.506 494.990 C 736.855 494.425, 738.497 496.676, 740.154 499.992 C 750.191 520.078, 766.501 528.099, 797.321 528.108 C 828.866 528.116, 835.989 525.358, 836.005 513.125 C 836.007 511.131, 836.896 503.474, 837.979 496.109 C 839.063 488.743, 840.250 478.731, 840.618 473.859 L 841.287 465 828.594 465 C 804.544 465, 806.623 472.854, 805.963 379.500 C 805.387 298.055, 804.934 290.828, 799.319 273.560 C 787.142 236.110, 755.946 211.674, 712.500 205.554 C 702.096 204.089, 675.260 203.016, 664 203.615 M 1034.021 204.125 C 1008.402 207.091, 985.632 223.239, 972.054 248.068 C 970.230 251.403, 968.934 252.890, 968.648 251.975 C 968.142 250.360, 963.535 227.359, 961.642 217 L 960.455 210.500 932.477 210.500 L 904.500 210.500 904.500 366 L 904.500 521.500 941 521.779 C 961.075 521.932, 978.539 521.804, 979.810 521.495 L 982.120 520.932 981.953 425.716 C 981.862 373.347, 982.106 329.150, 982.496 327.500 C 993.040 282.884, 1030.300 264.122, 1076.690 280.067 C 1083.184 282.299, 1083.368 282.098, 1085.486 270.491 C 1086.388 265.546, 1088.441 256.100, 1090.049 249.500 C 1091.656 242.900, 1093.659 233.450, 1094.499 228.500 C 1095.339 223.550, 1096.515 218.007, 1097.113 216.183 C 1097.710 214.359, 1098.042 212.750, 1097.850 212.609 C 1093.091 209.110, 1076.634 205.321, 1060.605 204.035 C 1046.263 202.884, 1044.698 202.889, 1034.021 204.125 M 1437.403 204.107 C 1424.922 204.953, 1408.816 208.011, 1404.155 210.419 C 1402.695 211.173, 1399.475 212.326, 1397 212.980 C 1365.596 221.279, 1325.609 262.334, 1314.127 298.065 C 1312.989 301.604, 1311.207 306.975, 1310.165 310 C 1306.225 321.442, 1302.813 348.198, 1302.813 367.645 C 1302.813 387.393, 1306.337 413.540, 1310.475 424.500 C 1311.722 427.800, 1313.764 433.425, 1315.013 437 C 1348.314 532.266, 1488.668 559.788, 1572.917 487.572 C 1589.023 473.767, 1594.367 467.123, 1591.230 464.807 C 1590.256 464.088, 1585.012 458.550, 1579.576 452.500 C 1574.140 446.450, 1568.226 439.925, 1566.435 438 C 1564.643 436.075, 1560.340 431.350, 1556.873 427.500 C 1553.405 423.650, 1550.213 420.349, 1549.779 420.165 C 1549.345 419.981, 1545.054 423.512, 1540.245 428.012 C 1482.740 481.818, 1384 461.640, 1384 396.083 C 1384 395.312, 1413.962 395, 1487.878 395 C 1572.243 395, 1591.959 394.754, 1592.841 393.691 C 1596.150 389.705, 1595.163 335.836, 1591.482 319.500 C 1586.996 299.586, 1585.610 294.865, 1581.134 284.248 C 1560.152 234.479, 1523.459 207.758, 1471 204.046 C 1455.116 202.922, 1454.886 202.922, 1437.403 204.107 M 2106.500 204.075 C 2081.313 205.693, 2063.961 210.363, 2043 221.166 C 2027.349 229.231, 2007 242.704, 2007 245.001 C 2007 245.476, 2006.100 246.151, 2005 246.500 C 2002.532 247.283, 2002.395 250.436, 2004.752 252.193 C 2005.716 252.912, 2007.629 255.157, 2009.002 257.183 C 2011.995 261.596, 2030.070 285.288, 2030.988 286 C 2031.342 286.275, 2033.054 288.525, 2034.792 291 C 2041.773 300.942, 2042.346 301.263, 2046.396 297.509 C 2068.376 277.138, 2111.831 266.599, 2143.919 273.855 C 2169.580 279.658, 2177 290.857, 2177 323.780 L 2177 338.192 2166.250 337.511 C 2160.338 337.136, 2151.450 336.425, 2146.500 335.932 C 2113.815 332.673, 2072.710 336.407, 2051.946 344.521 C 2047.049 346.435, 2042.814 348, 2042.534 348 C 2041.485 348, 2025.343 357.615, 2021.550 360.500 C 1980.360 391.821, 1978.643 463.639, 2018.228 499.469 C 2062.443 539.491, 2146.438 538.297, 2183.405 497.122 C 2186.255 493.947, 2187.222 494.472, 2190.421 500.927 C 2200.042 520.341, 2216.387 528.122, 2247.500 528.096 C 2272.392 528.076, 2284.374 525.126, 2285.467 518.748 C 2286.707 511.514, 2290.899 466.645, 2290.409 465.852 C 2290.119 465.384, 2284.396 464.998, 2277.691 464.996 C 2254.455 464.989, 2256.004 470.462, 2255.985 388.282 C 2255.965 304.963, 2255.493 297.555, 2248.639 273 C 2234.836 223.555, 2184.349 199.073, 2106.500 204.075 M 1154 366 L 1154 522.023 1192.750 521.762 L 1231.500 521.500 1231.500 366 L 1231.500 210.500 1192.750 210.238 L 1154 209.977 1154 366 M 1440.334 272.422 C 1407.579 278.634, 1385 302.928, 1385 331.958 L 1385 335 1451 335 L 1517 335 1516.996 332.250 C 1516.964 309.024, 1502.614 285.414, 1483.740 277.535 C 1471.756 272.532, 1452.015 270.206, 1440.334 272.422 M 661 391.645 C 625.743 394.878, 609.271 412.806, 616.861 439.688 C 625.529 470.387, 694.060 471.649, 726.750 441.712 C 729.446 439.243, 730.375 395.396, 727.750 394.520 C 723.098 392.969, 671.022 390.726, 661 391.645 M 2108.500 392.025 C 2078.673 395.236, 2065 406.616, 2065 428.230 C 2065 464.998, 2118.577 476.211, 2165.500 449.262 C 2179.142 441.427, 2178 444.332, 2178 417.464 L 2178 394.276 2170.483 393.595 C 2146.670 391.437, 2120.193 390.766, 2108.500 392.025" stroke="none" fill="#1b246c" fill-rule="evenodd"/></svg>