<?xml version="1.0" encoding="UTF-8" standalone="no"?>
<!-- Created with Inkscape (http://www.inkscape.org/) -->

<svg
   width="123.82554mm"
   height="33.409267mm"
   viewBox="0 0 123.82554 33.409267"
   version="1.1"
   id="svg5"
   xml:space="preserve"
   inkscape:version="1.2.2 (732a01da63, 2022-12-09)"
   sodipodi:docname="Horizontal.svg"
   xmlns:inkscape="http://www.inkscape.org/namespaces/inkscape"
   xmlns:sodipodi="http://sodipodi.sourceforge.net/DTD/sodipodi-0.dtd"
   xmlns="http://www.w3.org/2000/svg"
   xmlns:svg="http://www.w3.org/2000/svg"><sodipodi:namedview
     id="namedview7"
     pagecolor="#ffffff"
     bordercolor="#000000"
     borderopacity="0.25"
     inkscape:showpageshadow="2"
     inkscape:pageopacity="0.0"
     inkscape:pagecheckerboard="0"
     inkscape:deskcolor="#d1d1d1"
     inkscape:document-units="mm"
     showgrid="false"
     inkscape:zoom="1.4142136"
     inkscape:cx="597.15168"
     inkscape:cy="30.405592"
     inkscape:window-width="2560"
     inkscape:window-height="1494"
     inkscape:window-x="573"
     inkscape:window-y="2149"
     inkscape:window-maximized="1"
     inkscape:current-layer="g11862"
     showguides="false" /><defs
     id="defs2" /><g
     inkscape:label="Layer 1"
     inkscape:groupmode="layer"
     id="layer1"
     transform="translate(-14.663279,-115.38522)"><g
       id="g11862"
       transform="matrix(1.4215564,0,0,1.4215564,-46.750816,-12.188841)"><g
         id="g1010"><path
           id="path626"
           style="fill:#6c21ed;fill-opacity:1;stroke-width:0.232664;paint-order:stroke fill markers"
           d="m 82.608265,99.077366 -2.524392,7.711884 1.940968,0.0111 0.315118,-1.17547 2.401696,-0.0118 0.361437,1.19494 2.017839,-0.008 -2.550263,-7.714604 z m 0.956934,2.441854 0.730758,2.41869 -1.465951,0.0104 z" /><path
           id="path626-1"
           style="fill:#6c21ed;fill-opacity:1;stroke-width:0.232664;paint-order:stroke fill markers"
           d="m 125.79496,99.065666 -2.52439,7.711884 1.94097,0.0111 0.31511,-1.17547 2.4017,-0.0118 0.36144,1.19494 2.01783,-0.008 -2.55026,-7.714604 z m 0.95693,2.441854 0.73076,2.41869 -1.46595,0.0103 z" /><path
           id="path633"
           style="fill:#6c21ed;fill-opacity:1;stroke-width:0.232664;paint-order:stroke fill markers"
           d="m 88.940434,99.133046 0.0069,7.722974 1.766039,-0.007 -0.0069,-2.4389 h 1.00202 l 1.422835,2.45294 2.004287,-0.0281 -1.836257,-2.95728 c 0.686672,-0.33817 1.369621,-0.68358 1.372327,-2.31226 -0.127314,-1.2753 -0.562496,-1.629924 -1.274022,-2.111704 -0.350592,-0.18677 -0.583785,-0.28919 -0.930817,-0.30207 z m 1.735982,1.623384 1.532966,0.007 c 0.449059,0.007 0.71123,0.34595 0.707844,0.92145 -0.0034,0.57741 -0.164725,1.04235 -0.703163,1.03996 l -1.52927,9.6e-4 z" /><path
           style="fill:#6c21ed;fill-opacity:1;stroke-width:0.232664;paint-order:stroke fill markers"
           d="m 97.029197,99.090336 1.762535,0.005 0.01402,7.726434 -1.780055,0.002 z"
           id="path638" /><path
           style="fill:#6c21ed;fill-opacity:1;stroke-width:0.232664;paint-order:stroke fill markers"
           d="m 101.49661,99.090526 5.02376,-0.005 v 1.700784 l -3.20975,-0.002 0.002,1.30794 2.86775,0.009 0.005,1.75624 -2.86775,0.005 -0.009,1.2779 3.30219,0.002 0.005,1.69847 -5.14162,-0.009 z"
           id="path640" /><path
           style="fill:#6c21ed;fill-opacity:1;stroke-width:0.232664;paint-order:stroke fill markers"
           d="m 110.79312,99.098616 0.002,6.033614 3.36805,0.008 0.002,1.71927 h -5.17859 l 10e-4,-7.759234 z"
           id="path642"
           sodipodi:nodetypes="ccccccc" /><path
           style="fill:#6c21ed;fill-opacity:1;stroke-width:0.232664;paint-order:stroke fill markers"
           d="m 118.07905,99.106116 0.002,6.033614 3.36806,0.008 0.002,1.71927 h -5.17859 l 0.001,-7.759224 z"
           id="path642-6"
           sodipodi:nodetypes="ccccccc" /><g
           id="g29748"
           transform="matrix(0.28642808,0,0,0.28642808,30.827742,80.808039)"><path
             style="fill:#8648f0;fill-opacity:1;stroke-width:0.488;paint-order:stroke fill markers"
             d="m 43.202011,113.23542 30.878398,0.009 -19.272387,-73.771655 z"
             id="path358" /><path
             style="fill:#b088f5;fill-opacity:1;stroke-width:0.488;paint-order:stroke fill markers"
             d="m 167.88073,113.11761 -30.8784,0.009 C 142.8731,88.28453 149.4382,63.758053 156.27472,39.354952 Z"
             id="path358-3"
             sodipodi:nodetypes="cccc" /><path
             style="fill:#722aee;fill-opacity:1;stroke-width:0.488;paint-order:stroke fill markers"
             d="M 74.079197,113.24373 78.48203,80.416796 54.808209,39.478632 Z"
             id="path407" /><path
             style="fill:#b088f5;fill-opacity:1;stroke-width:0.488;paint-order:stroke fill markers"
             d="M 137.0077,113.1135 132.60487,80.286571 156.27869,39.348407 Z"
             id="path407-9" /><path
             style="fill:#8546f0;fill-opacity:1;stroke-width:0.488;paint-order:stroke fill markers"
             d="M 156.27745,39.355589 125.88447,31.192781 88.090406,96.62548 123.11987,96.63818 Z"
             id="path409-6"
             sodipodi:nodetypes="ccccc" /><path
             style="fill:#b28bf6;fill-opacity:1;stroke-width:0.488;paint-order:stroke fill markers"
             d="M 54.802146,39.48215 85.195124,31.319342 122.98919,96.75204 87.959719,96.76474 Z"
             id="path409"
             sodipodi:nodetypes="ccccc" /></g></g></g></g></svg>
