<svg width="28" height="28" viewBox="0 0 28 28" fill="none" xmlns="http://www.w3.org/2000/svg">
<path d="M13.9125 13.9125C15.7574 13.9125 17.5268 13.1796 18.8313 11.875C20.1359 10.5705 20.8687 8.80115 20.8687 6.95623C20.8687 5.11132 20.1359 3.34197 18.8313 2.03742C17.5268 0.732873 15.7574 -1.52588e-05 13.9125 -1.52588e-05C12.0676 -1.52588e-05 10.2982 0.732873 8.99369 2.03742C7.68914 3.34197 6.95625 5.11132 6.95625 6.95623C6.95625 8.80115 7.68914 10.5705 8.99369 11.875C10.2982 13.1796 12.0676 13.9125 13.9125 13.9125ZM18.55 6.95623C18.55 8.18618 18.0614 9.36574 17.1917 10.2354C16.322 11.1051 15.1424 11.5937 13.9125 11.5937C12.6826 11.5937 11.503 11.1051 10.6333 10.2354C9.76359 9.36574 9.275 8.18618 9.275 6.95623C9.275 5.72629 9.76359 4.54673 10.6333 3.67703C11.503 2.80733 12.6826 2.31873 13.9125 2.31873C15.1424 2.31873 16.322 2.80733 17.1917 3.67703C18.0614 4.54673 18.55 5.72629 18.55 6.95623ZM27.825 25.5062C27.825 27.825 25.5063 27.825 25.5063 27.825H2.31875C2.31875 27.825 0 27.825 0 25.5062C0 23.1875 2.31875 16.2312 13.9125 16.2312C25.5063 16.2312 27.825 23.1875 27.825 25.5062ZM25.5063 25.497C25.5039 24.9265 25.1492 23.2107 23.577 21.6386C22.0652 20.1267 19.2201 18.55 13.9125 18.55C8.60256 18.55 5.75977 20.1267 4.24795 21.6386C2.67584 23.2107 2.32339 24.9265 2.31875 25.497H25.5063Z" fill="#722AEE"/>
</svg>
