<svg width="28" height="28" viewBox="0 0 28 28" fill="none" xmlns="http://www.w3.org/2000/svg">
<path id="Vector" d="M13.9999 0C13.6919 0 13.3874 0.0105001 13.0846 0.0297502L13.1966 1.77626C13.7316 1.74169 14.2682 1.74169 14.8031 1.77626L14.9151 0.0297502C14.6105 0.00999471 14.3052 7.28214e-05 13.9999 0ZM11.2699 0.266002C10.6644 0.386752 10.0729 0.546003 9.49886 0.738505L10.0606 2.39751C10.5629 2.22601 11.0791 2.08776 11.6076 1.98276L11.2699 0.267752V0.266002ZM18.5009 0.740255C17.9222 0.544049 17.3312 0.386206 16.7317 0.267752L16.3922 1.98276C16.9207 2.08776 17.4369 2.22776 17.9392 2.39751L18.5009 0.740255ZM21.7787 2.35901C21.2708 2.01907 20.7411 1.71274 20.1932 1.44201L19.4179 3.01002C19.8992 3.24802 20.3629 3.51752 20.8057 3.81327L21.7787 2.35901ZM7.80484 1.44201C7.25534 1.71326 6.72683 2.01951 6.22108 2.35901L7.19409 3.81152C7.63887 3.51465 8.10243 3.24692 8.58185 3.01002L7.80484 1.44201ZM4.76857 3.47377C4.31007 3.87627 3.87606 4.31028 3.47356 4.76878L4.78957 5.92379C5.14307 5.52128 5.52107 5.14328 5.92358 4.78978L4.76857 3.47377ZM24.5262 4.76878C24.1231 4.3095 23.6905 3.87692 23.2312 3.47377L22.0762 4.78978C22.4787 5.14328 22.8585 5.52128 23.2102 5.92379L24.5262 4.76878ZM26.558 7.80505C26.2873 7.25765 25.981 6.72859 25.641 6.22129L24.1885 7.19429C24.4842 7.63705 24.752 8.1008 24.99 8.58205L26.558 7.80505ZM2.3588 6.22129C2.0193 6.72704 1.71129 7.25554 1.44179 7.8068L3.0098 8.58205C3.24781 8.1008 3.51731 7.63705 3.81306 7.19429L2.3588 6.22129ZM0.740037 9.49906C0.543827 10.0778 0.385983 10.6688 0.267533 11.2683L1.98255 11.6078C2.08755 11.0793 2.22755 10.5631 2.3973 10.0608L0.740037 9.49906ZM27.734 11.2701C27.6156 10.67 27.4578 10.0784 27.2615 9.49906L25.6025 10.0608C25.774 10.5631 25.9122 11.0793 26.0172 11.6078L27.7322 11.2683L27.734 11.2701ZM0.0295315 13.0848C-0.00984383 13.6944 -0.00984383 14.3058 0.0295315 14.9153L1.77605 14.8033C1.74147 14.2684 1.74147 13.7318 1.77605 13.1968L0.0295315 13.0848ZM28 14.0001C27.9999 13.6948 27.99 13.3895 27.9703 13.0848L26.2237 13.1968C26.2583 13.7318 26.2583 14.2684 26.2237 14.8033L27.9703 14.9153C27.99 14.6107 27.9999 14.3054 28 14.0001ZM0.265783 16.7301C0.386534 17.3356 0.545786 17.9271 0.738287 18.5011L2.3973 17.9394C2.22518 17.4334 2.08663 16.9166 1.98255 16.3923L0.267533 16.7319L0.265783 16.7301ZM27.2597 18.5011C27.4557 17.9271 27.6132 17.3356 27.7322 16.7319L26.0172 16.3923C25.9122 16.9209 25.7722 17.4371 25.6025 17.9394L27.2597 18.5011ZM1.44179 20.1951C1.71259 20.7425 2.01892 21.2715 2.3588 21.7789L3.81131 20.8059C3.51413 20.3613 3.24639 19.8977 3.0098 19.4181L1.44179 20.1934V20.1951ZM25.641 21.7789C25.9805 21.2731 26.2885 20.7446 26.558 20.1934L24.99 19.4181C24.752 19.8994 24.4825 20.3631 24.1867 20.8059L25.641 21.7789ZM3.47356 23.2314C3.87606 23.6899 4.31007 24.1239 4.76857 24.5264L5.92358 23.2104C5.52137 22.8574 5.14257 22.4786 4.78957 22.0764L3.47356 23.2314ZM23.2312 24.5264C23.6897 24.1239 24.1237 23.6899 24.5262 23.2314L23.2102 22.0764C22.8585 22.4789 22.4787 22.8586 22.0762 23.2104L23.2312 24.5264ZM20.1949 26.5582C20.7444 26.2869 21.2729 25.9807 21.7787 25.6412L20.8057 24.1886C20.3609 24.4855 19.8974 24.7533 19.4179 24.9902L20.1932 26.5582H20.1949ZM6.22108 25.6412C6.72683 25.9807 7.25534 26.2887 7.80659 26.5582L8.58185 24.9902C8.10221 24.753 7.63863 24.4847 7.19409 24.1869L6.22108 25.6412ZM9.49886 27.2599C10.0729 27.4559 10.6644 27.6134 11.2681 27.7324L11.6076 26.0174C11.0834 25.9133 10.5666 25.7747 10.0606 25.6027L9.49886 27.2599ZM16.7299 27.7342C17.33 27.6158 17.9216 27.458 18.5009 27.2617L17.9392 25.6027C17.4332 25.7747 16.9164 25.9133 16.3922 26.0174L16.7317 27.7324L16.7299 27.7342ZM13.0846 27.9704C13.6942 28.0099 14.3056 28.0099 14.9151 27.9704L14.8031 26.2239C14.2682 26.2585 13.7316 26.2585 13.1966 26.2239L13.0846 27.9704ZM14.8749 7.87505C14.8749 7.64298 14.7827 7.42042 14.6186 7.25633C14.4545 7.09223 14.232 7.00004 13.9999 7.00004C13.7678 7.00004 13.5453 7.09223 13.3812 7.25633C13.2171 7.42042 13.1249 7.64298 13.1249 7.87505V13.1251H7.87484C7.64278 13.1251 7.42022 13.2173 7.25612 13.3814C7.09202 13.5455 6.99984 13.768 6.99984 14.0001C6.99984 14.2322 7.09202 14.4547 7.25612 14.6188C7.42022 14.7829 7.64278 14.8751 7.87484 14.8751H13.1249V20.1251C13.1249 20.3572 13.2171 20.5798 13.3812 20.7438C13.5453 20.9079 13.7678 21.0001 13.9999 21.0001C14.232 21.0001 14.4545 20.9079 14.6186 20.7438C14.7827 20.5798 14.8749 20.3572 14.8749 20.1251V14.8751H20.1249C20.357 14.8751 20.5796 14.7829 20.7437 14.6188C20.9078 14.4547 20.9999 14.2322 20.9999 14.0001C20.9999 13.768 20.9078 13.5455 20.7437 13.3814C20.5796 13.2173 20.357 13.1251 20.1249 13.1251H14.8749V7.87505Z" fill="#722AEE"/>
</svg>
