<svg width="18" height="19" viewBox="0 0 18 19" fill="none" xmlns="http://www.w3.org/2000/svg">
<path id="ExplorerIcon" d="M17.5 10.0716C17.4998 11.6439 17.0561 13.1848 16.2192 14.5202C15.3823 15.8555 14.1855 16.9322 12.764 17.6284C11.3426 18.3247 9.75308 18.6128 8.17516 18.4602C6.59725 18.3076 5.09381 17.7205 3.83472 16.765C2.57562 15.8096 1.61107 14.5239 1.05003 13.0534C0.488989 11.5829 0.353832 9.98601 0.659829 8.4433C0.965826 6.90058 1.70078 5.47348 2.78165 4.32324C3.86252 3.173 5.24621 2.34548 6.7764 1.93417C6.72793 1.76676 6.71935 1.59047 6.75134 1.41921C6.78334 1.24795 6.85502 1.08641 6.96075 0.947335C7.06648 0.808258 7.20335 0.695452 7.36057 0.61782C7.51778 0.540188 7.69104 0.499854 7.86667 0.5H10.1333C10.309 0.499854 10.4822 0.540188 10.6394 0.61782C10.7966 0.695452 10.9335 0.808258 11.0393 0.947335C11.145 1.08641 11.2167 1.24795 11.2487 1.41921C11.2807 1.59047 11.2721 1.76676 11.2236 1.93417C13.0255 2.41909 14.6163 3.47866 15.7507 4.94933C16.885 6.42001 17.4997 8.22004 17.5 10.0716ZM13.4087 5.68257L7.79867 8.86113L4.59133 14.4258L10.2013 11.2473L13.4064 5.6837L13.4087 5.68257Z" fill="#722AEE"/>
</svg>
