<svg width="17" height="19" viewBox="0 0 17 19" fill="none" xmlns="http://www.w3.org/2000/svg">
<path id="HomeIcon" d="M6.72063 17.7286V13.2558C6.72063 12.9432 7.02334 12.6242 7.32605 12.6242H9.7477C10.0504 12.6242 10.3531 12.9432 10.3531 13.2622V17.7286C10.3531 17.8978 10.4169 18.0601 10.5304 18.1798C10.644 18.2994 10.798 18.3667 10.9585 18.3667H15.8018C15.9624 18.3667 16.1164 18.2994 16.2299 18.1798C16.3435 18.0601 16.4072 17.8978 16.4072 17.7286V8.79585C16.4074 8.712 16.3918 8.62895 16.3615 8.55143C16.3312 8.47392 16.2866 8.40347 16.2305 8.34411L14.591 6.61753V2.4153C14.591 2.24608 14.5272 2.08379 14.4137 1.96413C14.3001 1.84447 14.1462 1.77725 13.9856 1.77725H12.7748C12.6142 1.77725 12.4602 1.84447 12.3467 1.96413C12.2331 2.08379 12.1694 2.24608 12.1694 2.4153V4.06531L8.9655 0.687452C8.90927 0.628033 8.84246 0.58089 8.76891 0.548723C8.69536 0.516557 8.61651 0.5 8.53687 0.5C8.45724 0.5 8.37839 0.516557 8.30484 0.548723C8.23129 0.58089 8.16448 0.628033 8.10824 0.687452L0.843286 8.34411C0.787101 8.40347 0.742569 8.47392 0.712236 8.55143C0.681903 8.62895 0.666363 8.712 0.666505 8.79585V17.7286C0.666505 17.8978 0.73029 18.0601 0.843826 18.1798C0.957363 18.2994 1.11135 18.3667 1.27192 18.3667H6.11522C6.27579 18.3667 6.42978 18.2994 6.54331 18.1798C6.65685 18.0601 6.72063 17.8978 6.72063 17.7286Z" fill="#722AEE"/>
</svg>
