<svg width="21" height="21" viewBox="0 0 21 21" fill="none" xmlns="http://www.w3.org/2000/svg">
<g id="envelope 1" clip-path="url(#clip0_288_36)">
<path id="Vector" d="M0.166992 5.5C0.166992 4.83696 0.430384 4.20107 0.899225 3.73223C1.36807 3.26339 2.00395 3 2.66699 3H17.667C18.33 3 18.9659 3.26339 19.4348 3.73223C19.9036 4.20107 20.167 4.83696 20.167 5.5V15.5C20.167 16.163 19.9036 16.7989 19.4348 17.2678C18.9659 17.7366 18.33 18 17.667 18H2.66699C2.00395 18 1.36807 17.7366 0.899225 17.2678C0.430384 16.7989 0.166992 16.163 0.166992 15.5V5.5ZM2.66699 4.25C2.33547 4.25 2.01753 4.3817 1.78311 4.61612C1.54869 4.85054 1.41699 5.16848 1.41699 5.5V5.77125L10.167 11.0212L18.917 5.77125V5.5C18.917 5.16848 18.7853 4.85054 18.5509 4.61612C18.3165 4.3817 17.9985 4.25 17.667 4.25H2.66699ZM18.917 7.22875L13.032 10.76L18.917 14.3812V7.22875ZM18.8745 15.8237L11.8245 11.485L10.167 12.4788L8.50949 11.485L1.45949 15.8225C1.53052 16.0885 1.68739 16.3236 1.90573 16.4913C2.12407 16.659 2.39167 16.75 2.66699 16.75H17.667C17.9421 16.75 18.2096 16.6593 18.4279 16.4918C18.6463 16.3243 18.8032 16.0895 18.8745 15.8237ZM1.41699 14.3812L7.30199 10.76L1.41699 7.22875V14.3812Z" fill="#722AEE"/>
</g>
<defs>
<clipPath id="clip0_288_36">
<rect width="20" height="20" fill="white" transform="translate(0.166992 0.5)"/>
</clipPath>
</defs>
</svg>
