<svg width="19" height="18" viewBox="0 0 19 18" fill="none" xmlns="http://www.w3.org/2000/svg">
<path d="M14.0438 11.6361C15.133 10.1495 15.6209 8.30632 15.4098 6.47538C15.1987 4.64443 14.3041 2.96073 12.905 1.76112C11.506 0.56151 9.70564 -0.065537 7.86418 0.00542765C6.02272 0.0763923 4.27596 0.840135 2.97335 2.14386C1.67075 3.44758 0.90836 5.19514 0.838723 7.0369C0.769086 8.87867 1.39733 10.6788 2.59777 12.0772C3.79821 13.4756 5.48232 14.3691 7.31316 14.579C9.144 14.7888 10.9866 14.2995 12.4722 13.209H12.4711C12.5048 13.254 12.5408 13.2968 12.5813 13.3384L16.9124 17.6701C17.1233 17.8812 17.4095 17.9999 17.7079 18C18.0063 18.0001 18.2926 17.8816 18.5037 17.6707C18.7147 17.4597 18.8334 17.1735 18.8335 16.8751C18.8336 16.5766 18.7152 16.2903 18.5042 16.0792L14.1731 11.7475C14.1329 11.7068 14.0897 11.6703 14.0438 11.6361ZM14.334 7.31117C14.334 8.12381 14.174 8.92849 13.863 9.67927C13.5521 10.43 13.0963 11.1122 12.5218 11.6868C11.9472 12.2615 11.2652 12.7173 10.5145 13.0283C9.76382 13.3392 8.95926 13.4993 8.14673 13.4993C7.33421 13.4993 6.52964 13.3392 5.77897 13.0283C5.02829 12.7173 4.34621 12.2615 3.77167 11.6868C3.19713 11.1122 2.74138 10.43 2.43044 9.67927C2.1195 8.92849 1.95946 8.12381 1.95946 7.31117C1.95946 5.66997 2.61134 4.096 3.77167 2.9355C4.93201 1.77499 6.50577 1.12303 8.14673 1.12303C9.7877 1.12303 11.3615 1.77499 12.5218 2.9355C13.6821 4.096 14.334 5.66997 14.334 7.31117Z" fill="#838383"/>
</svg>