<svg width="38" height="38" viewBox="0 0 38 38" fill="none" xmlns="http://www.w3.org/2000/svg">
<g id="person 1">
<path id="Vector" d="M18.9125 18.9125C20.7574 18.9125 22.5268 18.1796 23.8313 16.875C25.1359 15.5705 25.8687 13.8011 25.8687 11.9562C25.8687 10.1113 25.1359 8.34197 23.8313 7.03742C22.5268 5.73287 20.7574 4.99998 18.9125 4.99998C17.0676 4.99998 15.2982 5.73287 13.9937 7.03742C12.6891 8.34197 11.9562 10.1113 11.9562 11.9562C11.9562 13.8011 12.6891 15.5705 13.9937 16.875C15.2982 18.1796 17.0676 18.9125 18.9125 18.9125ZM23.55 11.9562C23.55 13.1862 23.0614 14.3657 22.1917 15.2354C21.322 16.1051 20.1424 16.5937 18.9125 16.5937C17.6826 16.5937 16.503 16.1051 15.6333 15.2354C14.7636 14.3657 14.275 13.1862 14.275 11.9562C14.275 10.7263 14.7636 9.54673 15.6333 8.67703C16.503 7.80733 17.6826 7.31873 18.9125 7.31873C20.1424 7.31873 21.322 7.80733 22.1917 8.67703C23.0614 9.54673 23.55 10.7263 23.55 11.9562ZM32.825 30.5062C32.825 32.825 30.5063 32.825 30.5063 32.825H7.31875C7.31875 32.825 5 32.825 5 30.5062C5 28.1875 7.31875 21.2312 18.9125 21.2312C30.5063 21.2312 32.825 28.1875 32.825 30.5062ZM30.5063 30.497C30.5039 29.9265 30.1492 28.2107 28.577 26.6386C27.0652 25.1267 24.2201 23.55 18.9125 23.55C13.6026 23.55 10.7598 25.1267 9.24795 26.6386C7.67584 28.2107 7.32339 29.9265 7.31875 30.497H30.5063Z" fill="#722AEE"/>
</g>
</svg>
