<svg width="19" height="19" viewBox="0 0 19 19" fill="none" xmlns="http://www.w3.org/2000/svg">
<path id="ProgressIcon" fill-rule="evenodd" clip-rule="evenodd" d="M0.333496 0.5H1.4585V17.375H18.3335V18.5H0.333496V0.5ZM17.0026 4.00212C17.0598 4.04893 17.1072 4.10656 17.1422 4.17171C17.1771 4.23686 17.1988 4.30825 17.2061 4.3818C17.2135 4.45536 17.2062 4.52963 17.1848 4.60038C17.1634 4.67113 17.1282 4.73697 17.0814 4.79412L12.0189 10.9816C11.9691 11.0424 11.9072 11.092 11.8371 11.1274C11.767 11.1627 11.6903 11.183 11.6118 11.1869C11.5334 11.1909 11.4551 11.1783 11.3818 11.1501C11.3085 11.1219 11.2419 11.0787 11.1864 11.0233L8.276 8.11288L4.163 13.7682C4.07302 13.8827 3.9422 13.9577 3.79803 13.9777C3.65385 13.9977 3.50755 13.961 3.38986 13.8753C3.27218 13.7897 3.19227 13.6618 3.16693 13.5184C3.1416 13.3751 3.1728 13.2275 3.254 13.1067L7.754 6.91925C7.80176 6.85345 7.86322 6.79879 7.93414 6.75904C8.00506 6.71928 8.08376 6.69537 8.16481 6.68895C8.24587 6.68254 8.32735 6.69377 8.40364 6.72187C8.47993 6.74998 8.54923 6.79429 8.60675 6.85175L11.5419 9.788L16.2106 4.08087C16.2574 4.02367 16.3151 3.97625 16.3802 3.94133C16.4454 3.9064 16.5167 3.88467 16.5903 3.87735C16.6639 3.87004 16.7381 3.87729 16.8089 3.8987C16.8796 3.92011 16.9455 3.95526 17.0026 4.00212Z" fill="#722AEE"/>
</svg>
